# xmcd CD database file
#
# Track frame offsets:
#	182
#	102410
#	116897
#	133405
#	148707
#	161132
#	179187
#
# Disc length: 2596 seconds
#
# Revision: 3
# Processed by: cddbd v1.4PL0 Copyright (c) Steve Scherf et al.
# Submitted via: CDex 1.40Beta9
#
DISCID=740a2207
DTITLE=Various Artist - Today's Country
DYEAR=1994
DGENRE=Country
TTITLE0=Dance Mix Medley (DJ's Time out)
TTITLE1=Alan Jackson - Summertime blues
TTITLE2=Michelle Wright - One good man
TTITLE3=Blackhawk - Goodbye says it all
TTITLE4=Pam Tillis - When you walk in the room
TTITLE5=Radney Foster - Hammer and nails
TTITLE6=Michelle Wright - Safe in the arms of love
EXTD=ID3G: 2
EXTT0=Brooks and Dunn - Boot scootin' Boogie (Radio version)\t\n
EXTT0=The Tractors - Baby likes to rock it (Radio version]\n
EXTT0=Alan Jackson - Chattahoochee (Radio version]\n
EXTT0=Pam Tillis - Cleopatra, queen of denial (Radio version]\n
EXTT0=Brooks and Dunn - Rock my world, little country girl (Radio version)
EXTT1=
EXTT2=
EXTT3=
EXTT4=
EXTT5=
EXTT6=
PLAYORDER=
